<?xml version="1.0" encoding="UTF-8"?>
<!DOCTYPE svg PUBLIC "-//W3C//DTD SVG 1.1//EN" "http://www.w3.org/Graphics/SVG/1.1/DTD/svg11.dtd">
<svg xmlns="http://www.w3.org/2000/svg" version="1.1" width="1001px" height="1001px" style="shape-rendering:geometricPrecision; text-rendering:geometricPrecision; image-rendering:optimizeQuality; fill-rule:evenodd; clip-rule:evenodd" xmlns:xlink="http://www.w3.org/1999/xlink">
<g><path style="opacity:1" fill="#2e2e2e" d="M -0.5,0.5 C -0.5,0.166667 -0.5,-0.166667 -0.5,-0.5C 333.167,-0.5 666.833,-0.5 1000.5,-0.5C 1000.5,333.167 1000.5,666.833 1000.5,1000.5C 1000.17,1000.5 999.833,1000.5 999.5,1000.5C 999.5,667.167 999.5,333.833 999.5,0.5C 666.167,0.5 332.833,0.5 -0.5,0.5 Z"/></g>
<g><path style="opacity:1" fill="#fcf9f9" d="M -0.5,0.5 C 332.833,0.5 666.167,0.5 999.5,0.5C 999.5,333.833 999.5,667.167 999.5,1000.5C 666.167,1000.5 332.833,1000.5 -0.5,1000.5C -0.5,667.167 -0.5,333.833 -0.5,0.5 Z"/></g>
<g><path style="opacity:1" fill="#6fae57" d="M 422.5,182.5 C 425.025,184.177 427.691,185.677 430.5,187C 435.833,187.333 441.167,187.667 446.5,188C 458.766,192.032 462.933,200.199 459,212.5C 452.466,222.87 443.966,225.037 433.5,219C 430.833,215.667 428.167,212.333 425.5,209C 421.408,207.461 417.408,205.961 413.5,204.5C 412.638,195.561 415.638,188.228 422.5,182.5 Z"/></g>
<g><path style="opacity:1" fill="#3a7cad" d="M 415.5,187.5 C 414.079,190.585 412.746,193.752 411.5,197C 396.482,194.89 382.816,198.224 370.5,207C 366.893,210.098 363.893,213.598 361.5,217.5C 355.449,225.602 350.949,234.602 348,244.5C 338.19,281.403 329.19,318.403 321,355.5C 321.333,355.167 321.667,354.833 322,354.5C 322.947,349.53 324.447,344.863 326.5,340.5C 324.244,350.78 322.244,361.113 320.5,371.5C 316.689,368.083 312.689,367.749 308.5,370.5C 313.513,327.602 322.68,285.602 336,244.5C 340.671,231.492 346.671,219.159 354,207.5C 370.652,189.339 391.152,182.672 415.5,187.5 Z"/></g>
<g><path style="opacity:1" fill="#f9fbf8" d="M 432.5,191.5 C 433.5,191.5 434.5,191.5 435.5,191.5C 435.5,192.5 435.5,193.5 435.5,194.5C 434.5,194.5 433.5,194.5 432.5,194.5C 432.5,193.5 432.5,192.5 432.5,191.5 Z"/></g>
<g><path style="opacity:1" fill="#f4f9f2" d="M 441.5,191.5 C 447.029,190.75 450.029,193.083 450.5,198.5C 447.351,198.789 444.351,198.289 441.5,197C 438.892,195.063 438.892,193.23 441.5,191.5 Z"/></g>
<g><path style="opacity:1" fill="#263338" d="M 422.5,182.5 C 415.638,188.228 412.638,195.561 413.5,204.5C 413.649,205.552 413.483,206.552 413,207.5C 412.667,207.167 412.333,206.833 412,206.5C 411.971,203.633 411.138,201.133 409.5,199C 390.158,196.612 374.158,202.779 361.5,217.5C 363.893,213.598 366.893,210.098 370.5,207C 382.816,198.224 396.482,194.89 411.5,197C 412.746,193.752 414.079,190.585 415.5,187.5C 417.573,185.42 419.907,183.754 422.5,182.5 Z"/></g>
<g><path style="opacity:1" fill="#060a04" d="M 453.5,200.5 C 455.451,200.227 456.951,200.893 458,202.5C 458.267,211.403 454.1,217.07 445.5,219.5C 445.158,211.855 447.825,205.522 453.5,200.5 Z"/></g>
<g><path style="opacity:1" fill="#e5eef4" d="M 361.5,203.5 C 362.239,203.369 362.906,203.536 363.5,204C 351.401,220.034 342.901,237.868 338,257.5C 337.788,249.788 339.455,242.455 343,235.5C 347.914,223.993 354.08,213.326 361.5,203.5 Z"/></g>
<g><path style="opacity:1" fill="#181d23" d="M 361.5,217.5 C 355.546,227.85 351.046,238.85 348,250.5C 340.515,280.401 333.348,310.401 326.5,340.5C 324.447,344.863 322.947,349.53 322,354.5C 321.667,354.833 321.333,355.167 321,355.5C 329.19,318.403 338.19,281.403 348,244.5C 350.949,234.602 355.449,225.602 361.5,217.5 Z"/></g>
<g><path style="opacity:1" fill="#dbe7f0" d="M 333.5,264.5 C 335.676,265.713 336.009,267.38 334.5,269.5C 333.675,270.386 332.675,270.719 331.5,270.5C 331.253,268.142 331.919,266.142 333.5,264.5 Z"/></g>
<g><path style="opacity:1" fill="#66a466" d="M 574.5,282.5 C 572.035,288.488 568.869,294.155 565,299.5C 564.329,300.252 563.496,300.586 562.5,300.5C 556.435,300.739 550.435,300.239 544.5,299C 538.257,295.954 535.59,290.954 536.5,284C 537.495,271.01 544.495,265.344 557.5,267C 559.5,268 561.5,269 563.5,270C 567.066,274.333 570.733,278.499 574.5,282.5 Z"/></g>
<g><path style="opacity:1" fill="#f5f9f4" d="M 557.5,271.5 C 562.796,271.611 564.796,274.111 563.5,279C 557.258,279.923 555.258,277.423 557.5,271.5 Z"/></g>
<g><path style="opacity:1" fill="#070b06" d="M 546.5,269.5 C 550.225,269.78 551.392,271.78 550,275.5C 548.984,281.552 545.984,286.219 541,289.5C 540.228,289.355 539.561,289.022 539,288.5C 537.645,280.557 540.145,274.224 546.5,269.5 Z"/></g>
<g><path style="opacity:1" fill="#eff5f0" d="M 567.5,282.5 C 570.166,282.066 571.333,283.066 571,285.5C 567.403,287.066 566.237,286.066 567.5,282.5 Z"/></g>
<g><path style="opacity:1" fill="#619e6f" d="M 574.5,282.5 C 577.519,284.315 580.519,285.981 583.5,287.5C 583.739,291.074 583.239,294.741 582,298.5C 579.999,301.331 577.833,303.997 575.5,306.5C 573.265,306.205 571.265,306.539 569.5,307.5C 566.833,305.5 564.5,303.167 562.5,300.5C 563.496,300.586 564.329,300.252 565,299.5C 568.869,294.155 572.035,288.488 574.5,282.5 Z"/></g>
<g><path style="opacity:1" fill="#3a7cac" d="M 584.5,295.5 C 607.787,314.195 615.287,337.861 607,366.5C 597.924,385.661 586.591,403.328 573,419.5C 550.396,446.605 525.896,471.939 499.5,495.5C 499.736,490.548 498.736,485.881 496.5,481.5C 524.501,452.331 552.001,422.664 579,392.5C 587.499,382.168 593.333,370.501 596.5,357.5C 602.413,337.271 597.413,320.104 581.5,306C 579.365,305.395 579.031,305.895 580.5,307.5C 579.391,307.443 578.391,307.11 577.5,306.5C 581.077,303.692 583.41,300.026 584.5,295.5 Z"/></g>
<g><path style="opacity:1" fill="#1c2b35" d="M 583.5,287.5 C 584.265,290.096 584.599,292.763 584.5,295.5C 583.41,300.026 581.077,303.692 577.5,306.5C 576.833,306.5 576.167,306.5 575.5,306.5C 577.833,303.997 579.999,301.331 582,298.5C 583.239,294.741 583.739,291.074 583.5,287.5 Z"/></g>
<g><path style="opacity:1" fill="#4e534e" d="M 575.5,306.5 C 573.598,308.151 571.598,308.484 569.5,307.5C 571.265,306.539 573.265,306.205 575.5,306.5 Z"/></g>
<g><path style="opacity:1" fill="#15212b" d="M 596.5,357.5 C 598.137,348.617 597.803,339.951 595.5,331.5C 595.59,328.848 594.924,326.515 593.5,324.5C 592.538,321.243 591.038,318.243 589,315.5C 585.667,313.333 582.834,310.666 580.5,307.5C 579.031,305.895 579.365,305.395 581.5,306C 597.413,320.104 602.413,337.271 596.5,357.5 Z"/></g>
<g><path style="opacity:1" fill="#8cacc7" d="M 593.5,324.5 C 594.924,326.515 595.59,328.848 595.5,331.5C 594.076,329.485 593.41,327.152 593.5,324.5 Z"/></g>
<g><path style="opacity:1" fill="#ebf1f6" d="M 603.5,352.5 C 604.124,352.917 604.457,353.584 604.5,354.5C 600.819,372.264 593.152,387.931 581.5,401.5C 580.479,400.998 580.312,400.332 581,399.5C 591.461,385.3 598.961,369.633 603.5,352.5 Z"/></g>
<g><path style="opacity:1" fill="#3a7dae" d="M 664.5,360.5 C 686.93,364.813 707.93,372.98 727.5,385C 795.812,428.073 834.979,489.907 845,570.5C 846.611,594.353 845.278,618.019 841,641.5C 839.579,648.649 837.412,655.482 834.5,662C 828.894,663.706 825.894,661.706 825.5,656C 848.942,555.656 820.942,472.989 741.5,408C 718.111,391.14 692.444,378.807 664.5,371C 661.88,367.502 661.88,364.002 664.5,360.5 Z"/></g>
<g><path style="opacity:1" fill="#70b057" d="M 320.5,371.5 C 322.452,372.785 324.118,374.451 325.5,376.5C 320.753,386.962 317.919,397.962 317,409.5C 315.257,435.399 316.924,461.066 322,486.5C 325.246,499.241 330.246,511.241 337,522.5C 342.358,529.083 348.858,534.083 356.5,537.5C 349.647,549.864 342.147,561.864 334,573.5C 333.536,572.906 333.369,572.239 333.5,571.5C 334.553,567.066 335.886,562.732 337.5,558.5C 334.405,558.626 332.572,560.293 332,563.5C 328.177,573.498 324.677,583.498 321.5,593.5C 317.109,599.259 312.943,605.259 309,611.5C 308.601,611.272 308.435,610.938 308.5,610.5C 310.534,598.891 313.701,587.558 318,576.5C 322.266,566.535 326.432,556.535 330.5,546.5C 311.577,526.285 300.41,502.285 297,474.5C 292.228,441.412 294.228,408.745 303,376.5C 304.331,374.004 306.164,372.004 308.5,370.5C 312.689,367.749 316.689,368.083 320.5,371.5 Z"/></g>
<g><path style="opacity:1" fill="#edf5ea" d="M 305.5,386.5 C 306.5,386.5 307.5,386.5 308.5,386.5C 308.663,388.857 308.497,391.19 308,393.5C 306.989,394.337 305.822,394.67 304.5,394.5C 304.575,391.794 304.908,389.127 305.5,386.5 Z"/></g>
<g><path style="opacity:1" fill="#e8eff5" d="M 575.5,404.5 C 576.497,404.47 577.164,404.97 577.5,406C 576.964,408.24 575.797,410.073 574,411.5C 573.308,410.975 572.808,410.308 572.5,409.5C 573.763,407.971 574.763,406.305 575.5,404.5 Z"/></g>
<g><path style="opacity:1" fill="#eaf3e7" d="M 303.5,410.5 C 305.318,423.128 306.152,436.128 306,449.5C 307.113,456.343 308.279,463.176 309.5,470C 309.167,470.833 308.833,471.667 308.5,472.5C 306.931,471.286 306.098,469.619 306,467.5C 302.648,448.546 301.815,429.546 303.5,410.5 Z"/></g>
<g><path style="opacity:1" fill="#3a7dae" d="M 647.5,422.5 C 670.226,427.03 690.892,436.196 709.5,450C 766.752,496.064 789.586,555.564 778,628.5C 776.773,634.093 774.939,639.426 772.5,644.5C 767.342,646.67 764.342,645.003 763.5,639.5C 780.765,565.452 759.765,504.952 700.5,458C 684.169,446.993 666.503,438.659 647.5,433C 643.565,429.504 643.565,426.004 647.5,422.5 Z"/></g>
<g><path style="opacity:1" fill="#1b1c1d" d="M 596.5,357.5 C 593.333,370.501 587.499,382.168 579,392.5C 552.001,422.664 524.501,452.331 496.5,481.5C 496.5,481.167 496.5,480.833 496.5,480.5C 523.162,451.67 549.662,422.67 576,393.5C 585.179,382.805 592.013,370.805 596.5,357.5 Z"/></g>
<g><path style="opacity:1" fill="#589381" d="M 496.5,480.5 C 496.5,480.833 496.5,481.167 496.5,481.5C 498.736,485.881 499.736,490.548 499.5,495.5C 499.657,496.873 499.49,498.207 499,499.5C 487.877,514.126 474.711,526.46 459.5,536.5C 462.916,530.568 466.582,524.735 470.5,519C 470.272,518.601 469.938,518.435 469.5,518.5C 476.238,511.95 483.238,505.616 490.5,499.5C 489.635,498.417 488.635,498.251 487.5,499C 485.578,501.43 483.245,503.263 480.5,504.5C 485.14,496.851 489.806,489.184 494.5,481.5C 495.167,481.167 495.833,480.833 496.5,480.5 Z"/></g>
<g><path style="opacity:1" fill="#397dae" d="M 629.5,484.5 C 643.762,486.422 656.762,491.589 668.5,500C 711.148,532.943 725.148,575.277 710.5,627C 702.805,628.509 699.972,625.342 702,617.5C 711.572,568.156 695.072,530.322 652.5,504C 644.662,500.276 636.662,496.943 628.5,494C 627.01,490.603 627.344,487.436 629.5,484.5 Z"/></g>
<g><path style="opacity:1" fill="#5b987c" d="M 494.5,481.5 C 489.806,489.184 485.14,496.851 480.5,504.5C 468.729,515.1 457.063,525.933 445.5,537C 446.167,537.667 446.833,537.667 447.5,537C 454.999,530.998 462.332,524.832 469.5,518.5C 469.938,518.435 470.272,518.601 470.5,519C 466.582,524.735 462.916,530.568 459.5,536.5C 451.204,542.321 442.537,547.654 433.5,552.5C 442.051,537.935 451.051,523.602 460.5,509.5C 460.376,508.893 460.043,508.56 459.5,508.5C 468.994,498.838 478.328,489.005 487.5,479C 490.242,478.705 492.575,479.538 494.5,481.5 Z"/></g>
<g><path style="opacity:1" fill="#ecf3f0" d="M 469.5,518.5 C 462.332,524.832 454.999,530.998 447.5,537C 446.833,537.667 446.167,537.667 445.5,537C 457.063,525.933 468.729,515.1 480.5,504.5C 483.245,503.263 485.578,501.43 487.5,499C 488.635,498.251 489.635,498.417 490.5,499.5C 483.238,505.616 476.238,511.95 469.5,518.5 Z"/></g>
<g><path style="opacity:1" fill="#5c9a75" d="M 459.5,508.5 C 460.043,508.56 460.376,508.893 460.5,509.5C 451.051,523.602 442.051,537.935 433.5,552.5C 426.394,556.053 419.061,559.053 411.5,561.5C 417.239,551.694 423.239,542.027 429.5,532.5C 439.764,524.91 449.764,516.91 459.5,508.5 Z"/></g>
<g><path style="opacity:1" fill="#619f6f" d="M 429.5,532.5 C 423.239,542.027 417.239,551.694 411.5,561.5C 404.673,563.662 397.673,564.996 390.5,565.5C 394.807,558.851 399.141,552.184 403.5,545.5C 402.675,544.614 401.675,544.281 400.5,544.5C 410.452,541.363 420.119,537.363 429.5,532.5 Z"/></g>
<g><path style="opacity:1" fill="#367bad" d="M 568.5,630.5 C 562.718,625.383 558.051,619.383 554.5,612.5C 545.164,585.283 552.164,563.449 575.5,547C 597.662,536.517 618.329,538.85 637.5,554C 654.237,573.185 657.071,594.351 646,617.5C 631.679,642.61 610.845,650.11 583.5,640C 578.134,637.322 573.134,634.156 568.5,630.5 Z"/></g>
<g><path style="opacity:1" fill="#6aaa5f" d="M 356.5,537.5 C 364.887,542.184 373.887,544.851 383.5,545.5C 379.662,552.516 375.328,559.183 370.5,565.5C 364.539,564.79 359.039,562.79 354,559.5C 342.076,581.104 334.243,604.104 330.5,628.5C 326.443,633.59 322.61,638.923 319,644.5C 318.506,642.866 318.34,641.199 318.5,639.5C 320.202,615.979 325.202,593.312 333.5,571.5C 333.369,572.239 333.536,572.906 334,573.5C 342.147,561.864 349.647,549.864 356.5,537.5 Z"/></g>
<g><path style="opacity:1" fill="#65a367" d="M 400.5,544.5 C 401.675,544.281 402.675,544.614 403.5,545.5C 399.141,552.184 394.807,558.851 390.5,565.5C 383.833,566.833 377.167,566.833 370.5,565.5C 375.328,559.183 379.662,552.516 383.5,545.5C 389.196,545.553 394.862,545.22 400.5,544.5 Z"/></g>
<g><path style="opacity:1" fill="#f6f9fb" d="M 574.5,553.5 C 579.068,553.083 580.568,555.083 579,559.5C 575.828,562.388 573.661,561.722 572.5,557.5C 572.752,555.927 573.418,554.594 574.5,553.5 Z"/></g>
<g><path style="opacity:1" fill="#f3f8f2" d="M 333.5,571.5 C 325.202,593.312 320.202,615.979 318.5,639.5C 317.51,645.31 317.177,651.31 317.5,657.5C 316.5,657.5 315.5,657.5 314.5,657.5C 314.5,655.833 314.5,654.167 314.5,652.5C 314.388,642.47 314.888,632.47 316,622.5C 317.94,612.848 319.774,603.181 321.5,593.5C 324.677,583.498 328.177,573.498 332,563.5C 332.572,560.293 334.405,558.626 337.5,558.5C 335.886,562.732 334.553,567.066 333.5,571.5 Z"/></g>
<g><path style="opacity:1" fill="#f9fbfc" d="M 564.5,561.5 C 569.156,560.34 571.823,562.007 572.5,566.5C 571.764,571.305 569.93,575.638 567,579.5C 562.494,582.808 559.327,581.975 557.5,577C 559.446,571.611 561.78,566.444 564.5,561.5 Z"/></g>
<g><path style="opacity:1" fill="#427aa3" d="M 554.5,612.5 C 558.051,619.383 562.718,625.383 568.5,630.5C 560.512,638.08 553.679,646.747 548,656.5C 540.139,670.888 532.806,685.555 526,700.5C 505.995,734.507 477.495,758.34 440.5,772C 428.005,775.119 415.339,776.119 402.5,775C 399.478,774.902 396.811,774.068 394.5,772.5C 398.833,765.833 403.167,759.167 407.5,752.5C 426.102,752.349 443.436,747.515 459.5,738C 479.579,725.255 496.412,709.088 510,689.5C 518.661,667.175 529.661,646.175 543,626.5C 547.069,621.94 550.902,617.274 554.5,612.5 Z"/></g>
<g><path style="opacity:1" fill="#eef3f8" d="M 626.5,623.5 C 632.168,622.641 633.501,624.474 630.5,629C 627.197,632.664 624.53,632.331 622.5,628C 623.344,625.993 624.677,624.493 626.5,623.5 Z"/></g>
<g><path style="opacity:1" fill="#6baa62" d="M 321.5,593.5 C 319.774,603.181 317.94,612.848 316,622.5C 314.888,632.47 314.388,642.47 314.5,652.5C 310.589,657.322 306.922,662.322 303.5,667.5C 301.153,648.012 302.82,629.012 308.5,610.5C 308.435,610.938 308.601,611.272 309,611.5C 312.943,605.259 317.109,599.259 321.5,593.5 Z"/></g>
<g><path style="opacity:1" fill="#f3f7fa" d="M 610.5,629.5 C 616.496,628.333 618.996,630.666 618,636.5C 611.779,639.128 605.279,639.961 598.5,639C 592.345,636.9 592.012,634.234 597.5,631C 602.019,630.825 606.353,630.325 610.5,629.5 Z"/></g>
<g><path style="opacity:1" fill="#65a468" d="M 330.5,628.5 C 328.726,639.064 328.059,649.731 328.5,660.5C 322.109,669.597 315.942,678.93 310,688.5C 309.329,689.252 308.496,689.586 307.5,689.5C 305.53,682.285 304.196,674.952 303.5,667.5C 306.922,662.322 310.589,657.322 314.5,652.5C 314.5,654.167 314.5,655.833 314.5,657.5C 315.5,657.5 316.5,657.5 317.5,657.5C 317.177,651.31 317.51,645.31 318.5,639.5C 318.34,641.199 318.506,642.866 319,644.5C 322.61,638.923 326.443,633.59 330.5,628.5 Z"/></g>
<g><path style="opacity:1" fill="#5f9e6e" d="M 328.5,660.5 C 329.833,667.499 331.167,674.499 332.5,681.5C 326.5,690.167 320.5,698.833 314.5,707.5C 311.774,701.657 309.441,695.657 307.5,689.5C 308.496,689.586 309.329,689.252 310,688.5C 315.942,678.93 322.109,669.597 328.5,660.5 Z"/></g>
<g><path style="opacity:1" fill="#e3eee3" d="M 313.5,667.5 C 314.993,668.312 315.66,669.645 315.5,671.5C 315.563,673.481 314.896,675.148 313.5,676.5C 312.259,673.463 312.259,670.463 313.5,667.5 Z"/></g>
<g><path style="opacity:1" fill="#5c9a74" d="M 332.5,681.5 C 334.34,686.353 336.007,691.353 337.5,696.5C 332.66,704.852 327.327,712.852 321.5,720.5C 318.912,716.326 316.579,711.993 314.5,707.5C 320.5,698.833 326.5,690.167 332.5,681.5 Z"/></g>
<g><path style="opacity:1" fill="#58957a" d="M 337.5,696.5 C 340.151,701.131 342.818,705.798 345.5,710.5C 340.389,717.748 335.056,724.748 329.5,731.5C 326.833,727.833 324.167,724.167 321.5,720.5C 327.327,712.852 332.66,704.852 337.5,696.5 Z"/></g>
<g><path style="opacity:1" fill="#559280" d="M 345.5,710.5 C 349.136,715.142 352.803,719.809 356.5,724.5C 350.874,730.392 346.207,737.058 342.5,744.5C 337.833,740.5 333.5,736.167 329.5,731.5C 335.056,724.748 340.389,717.748 345.5,710.5 Z"/></g>
<g><path style="opacity:1" fill="#518d87" d="M 356.5,724.5 C 359.874,727.51 363.208,730.51 366.5,733.5C 362.167,740.167 357.833,746.833 353.5,753.5C 349.518,750.848 345.851,747.848 342.5,744.5C 346.207,737.058 350.874,730.392 356.5,724.5 Z"/></g>
<g><path style="opacity:1" fill="#4c888e" d="M 366.5,733.5 C 372.697,738.093 379.03,742.427 385.5,746.5C 381.443,751.59 377.61,756.923 374,762.5C 373.517,763.448 373.351,764.448 373.5,765.5C 366.502,762.003 359.835,758.003 353.5,753.5C 357.833,746.833 362.167,740.167 366.5,733.5 Z"/></g>
<g><path style="opacity:1" fill="#e9eff4" d="M 501.5,718.5 C 502.043,718.56 502.376,718.893 502.5,719.5C 487.618,740.883 467.952,756.05 443.5,765C 442.167,765.667 440.833,765.667 439.5,765C 464.315,755.017 484.982,739.517 501.5,718.5 Z"/></g>
<g><path style="opacity:1" fill="#468198" d="M 385.5,746.5 C 392.552,749.43 399.886,751.43 407.5,752.5C 403.167,759.167 398.833,765.833 394.5,772.5C 387.027,771.565 380.027,769.231 373.5,765.5C 373.351,764.448 373.517,763.448 374,762.5C 377.61,756.923 381.443,751.59 385.5,746.5 Z"/></g>
</svg>
