<?xml version="1.0" encoding="UTF-8"?>
<!DOCTYPE svg PUBLIC "-//W3C//DTD SVG 1.1//EN" "http://www.w3.org/Graphics/SVG/1.1/DTD/svg11.dtd">
<svg xmlns="http://www.w3.org/2000/svg" version="1.1" width="500px" height="500px" style="shape-rendering:geometricPrecision; text-rendering:geometricPrecision; image-rendering:optimizeQuality; fill-rule:evenodd; clip-rule:evenodd" xmlns:xlink="http://www.w3.org/1999/xlink">
<g><path style="opacity:0.671" fill="#9eb5c1" d="M 212.5,91.5 C 210.938,91.7329 209.605,92.3995 208.5,93.5C 208.167,93.5 207.833,93.5 207.5,93.5C 202.833,93.5 198.167,93.5 193.5,93.5C 197.002,92.6939 200.669,92.0272 204.5,91.5C 205.554,91.6799 206.554,92.0133 207.5,92.5C 209.07,90.6212 210.736,90.2878 212.5,91.5 Z"/></g>
<g><path style="opacity:0.999" fill="#7db566" d="M 212.5,91.5 C 217.041,91.9942 221.374,92.9942 225.5,94.5C 225.167,95.5 224.5,96.1667 223.5,96.5C 222.292,95.218 220.958,95.218 219.5,96.5C 219.624,97.1067 219.957,97.44 220.5,97.5C 221.167,97.8333 221.833,98.1667 222.5,98.5C 223.568,99.4345 224.901,99.7678 226.5,99.5C 223.694,102.407 222.694,105.74 223.5,109.5C 227.341,107.67 229.007,104.67 228.5,100.5C 229.451,101.919 229.784,103.585 229.5,105.5C 226.861,111.403 222.527,112.903 216.5,110C 214.787,108.622 213.453,106.955 212.5,105C 210.655,103.872 208.655,103.372 206.5,103.5C 206.5,101.167 206.5,98.8333 206.5,96.5C 207.906,96.0269 208.573,95.0269 208.5,93.5C 209.605,92.3995 210.938,91.7329 212.5,91.5 Z"/></g>
<g><path style="opacity:0.993" fill="#5081a9" d="M 193.5,93.5 C 198.167,93.5 202.833,93.5 207.5,93.5C 206.89,94.391 206.557,95.391 206.5,96.5C 203.296,97.9885 199.963,98.9885 196.5,99.5C 190.116,101.348 184.783,104.681 180.5,109.5C 177.534,112.073 175.534,115.406 174.5,119.5C 174.624,120.107 174.957,120.44 175.5,120.5C 172.122,134.685 168.455,148.685 164.5,162.5C 164.649,161.448 164.483,160.448 164,159.5C 162.345,164.773 161.345,170.107 161,175.5C 161.278,174.584 161.778,173.918 162.5,173.5C 162.702,175.95 162.369,178.283 161.5,180.5C 160.549,181.919 160.216,183.585 160.5,185.5C 158.621,184.659 156.621,184.325 154.5,184.5C 154.5,182.833 154.5,181.167 154.5,179.5C 156.798,159.67 161.132,140.337 167.5,121.5C 168.117,121.389 168.617,121.056 169,120.5C 169.333,121.833 169.667,123.167 170,124.5C 173.469,114.895 177.969,105.895 183.5,97.5C 186.192,94.8193 189.525,93.4859 193.5,93.5 Z"/></g>
<g><path style="opacity:1" fill="#335333" d="M 207.5,93.5 C 207.833,93.5 208.167,93.5 208.5,93.5C 208.573,95.0269 207.906,96.0269 206.5,96.5C 206.557,95.391 206.89,94.391 207.5,93.5 Z"/></g>
<g><path style="opacity:1" fill="#a2ca90" d="M 225.5,94.5 C 230.97,96.8896 232.304,100.556 229.5,105.5C 229.784,103.585 229.451,101.919 228.5,100.5C 228.158,99.6618 227.492,99.3284 226.5,99.5C 224.901,99.7678 223.568,99.4345 222.5,98.5C 222.833,97.8333 223.167,97.1667 223.5,96.5C 224.5,96.1667 225.167,95.5 225.5,94.5 Z"/></g>
<g><path style="opacity:0.157" fill="#dcecd5" d="M 223.5,96.5 C 222.209,96.2627 221.209,96.596 220.5,97.5C 219.957,97.44 219.624,97.1067 219.5,96.5C 220.958,95.218 222.292,95.218 223.5,96.5 Z"/></g>
<g><path style="opacity:0.451" fill="#777e80" d="M 206.5,96.5 C 206.5,98.8333 206.5,101.167 206.5,103.5C 205.673,104.439 205.006,104.105 204.5,102.5C 205.404,101.791 205.737,100.791 205.5,99.5C 202.5,99.5 199.5,99.5 196.5,99.5C 199.963,98.9885 203.296,97.9885 206.5,96.5 Z"/></g>
<g><path style="opacity:1" fill="#0b1007" d="M 226.5,99.5 C 227.492,99.3284 228.158,99.6618 228.5,100.5C 229.007,104.67 227.341,107.67 223.5,109.5C 222.694,105.74 223.694,102.407 226.5,99.5 Z"/></g>
<g><path style="opacity:0.004" fill="#fcfaf9" d="M 204.5,102.5 C 203.833,101.167 203.833,101.167 204.5,102.5 Z"/></g>
<g><path style="opacity:0.886" fill="#80a7c9" d="M 183.5,97.5 C 177.969,105.895 173.469,114.895 170,124.5C 169.667,123.167 169.333,121.833 169,120.5C 168.617,121.056 168.117,121.389 167.5,121.5C 169.519,115.128 172.352,109.128 176,103.5C 178.106,100.882 180.606,98.8823 183.5,97.5 Z"/></g>
<g><path style="opacity:0.004" fill="#fcfaf9" d="M 178.5,115.5 C 179.833,116.167 179.833,116.167 178.5,115.5 Z"/></g>
<g><path style="opacity:0.933" fill="#4a535c" d="M 180.5,109.5 C 178.559,113.048 176.893,116.714 175.5,120.5C 174.957,120.44 174.624,120.107 174.5,119.5C 175.534,115.406 177.534,112.073 180.5,109.5 Z"/></g>
<g><path style="opacity:0.004" fill="#fcfaf9" d="M 174.5,127.5 C 175.833,128.167 175.833,128.167 174.5,127.5 Z"/></g>
<g><path style="opacity:0.004" fill="#fcfaf9" d="M 172.5,135.5 C 173.525,135.897 173.692,136.563 173,137.5C 172.536,136.906 172.369,136.239 172.5,135.5 Z"/></g>
<g><path style="opacity:0.997" fill="#77ac7b" d="M 291.5,143.5 C 291.551,147.86 289.551,151.027 285.5,153C 285.728,153.399 286.062,153.565 286.5,153.5C 286.265,154.097 285.765,154.43 285,154.5C 283.225,153.73 281.725,152.563 280.5,151C 270.39,152.551 265.89,148.384 267,138.5C 269.402,132.908 273.569,131.075 279.5,133C 282.833,135 285.5,137.667 287.5,141C 289.087,141.862 290.754,142.529 292.5,143C 292.272,143.399 291.938,143.565 291.5,143.5 Z M 277.5,137.5 C 278.849,136.203 280.182,136.37 281.5,138C 280.154,139.587 278.821,139.42 277.5,137.5 Z"/></g>
<g><path style="opacity:1" fill="#090f08" d="M 272.5,134.5 C 274.344,135.204 274.844,136.537 274,138.5C 270.702,146.064 269.035,146.064 269,138.5C 270.376,137.295 271.542,135.962 272.5,134.5 Z"/></g>
<g><path style="opacity:0.004" fill="#fcfaf9" d="M 170.5,143.5 C 171.833,144.167 171.833,144.167 170.5,143.5 Z"/></g>
<g><path style="opacity:0.992" fill="#3a4f61" d="M 164.5,162.5 C 164.354,166.387 163.687,170.054 162.5,173.5C 161.778,173.918 161.278,174.584 161,175.5C 161.345,170.107 162.345,164.773 164,159.5C 164.483,160.448 164.649,161.448 164.5,162.5 Z"/></g>
<g><path style="opacity:0.993" fill="#5c8fb9" d="M 330.5,179.5 C 345.563,182.031 359.229,187.864 371.5,197C 416.187,231.763 431.187,276.43 416.5,331C 413.412,331.588 411.745,330.255 411.5,327C 423.701,271.231 406.035,227.897 358.5,197C 349.971,192.157 340.971,188.491 331.5,186C 329.316,184.102 328.983,181.936 330.5,179.5 Z"/></g>
<g><path style="opacity:0.235" fill="#cbdce9" d="M 298.5,188.5 C 297.079,191.009 295.412,193.343 293.5,195.5C 293.167,195.5 292.833,195.5 292.5,195.5C 296.192,189.607 299.025,183.273 301,176.5C 300.908,180.621 300.075,184.621 298.5,188.5 Z"/></g>
<g><path style="opacity:0.396" fill="#cfdedb" d="M 154.5,179.5 C 154.5,181.167 154.5,182.833 154.5,184.5C 154.027,185.906 153.027,186.573 151.5,186.5C 152.659,184.145 153.659,181.812 154.5,179.5 Z"/></g>
<g><path style="opacity:0.01" fill="#eef1f0" d="M 161.5,180.5 C 161.104,183.044 161.771,185.211 163.5,187C 163.272,187.399 162.938,187.565 162.5,187.5C 161.5,187.167 160.833,186.5 160.5,185.5C 160.216,183.585 160.549,181.919 161.5,180.5 Z"/></g>
<g><path style="opacity:0.998" fill="#7db666" d="M 154.5,184.5 C 156.621,184.325 158.621,184.659 160.5,185.5C 160.833,186.5 161.5,187.167 162.5,187.5C 156.663,209.759 157.496,231.759 165,253.5C 166.928,257.032 169.095,260.366 171.5,263.5C 171.973,264.906 172.973,265.573 174.5,265.5C 176.784,265.975 178.784,266.975 180.5,268.5C 180.611,269.117 180.944,269.617 181.5,270C 175.283,278.556 169.449,287.39 164,296.5C 163.517,295.552 163.351,294.552 163.5,293.5C 163.737,292.209 163.404,291.209 162.5,290.5C 162.631,289.761 162.464,289.094 162,288.5C 160.667,290.5 159.333,292.5 158,294.5C 157.51,293.207 157.343,291.873 157.5,290.5C 159.138,284.391 161.471,278.558 164.5,273C 157.602,265.703 152.936,257.203 150.5,247.5C 150.279,244.933 149.612,242.599 148.5,240.5C 145.878,226.536 145.878,212.536 148.5,198.5C 149.924,196.485 150.59,194.152 150.5,191.5C 150.366,189.708 150.699,188.042 151.5,186.5C 153.027,186.573 154.027,185.906 154.5,184.5 Z"/></g>
<g><path style="opacity:0.992" fill="#5086b2" d="M 291.5,143.5 C 292.264,146.787 294.097,149.454 297,151.5C 306.513,163.211 307.68,175.544 300.5,188.5C 299.604,189.506 298.938,189.506 298.5,188.5C 300.075,184.621 300.908,180.621 301,176.5C 299.025,183.273 296.192,189.607 292.5,195.5C 292.5,195.833 292.5,196.167 292.5,196.5C 289.481,198.374 289.148,200.374 291.5,202.5C 278.855,218.476 265.189,233.476 250.5,247.5C 249.926,245.212 248.926,243.045 247.5,241C 247.728,240.601 248.062,240.435 248.5,240.5C 263.468,224.028 278.301,207.361 293,190.5C 298.605,181.437 299.938,171.77 297,161.5C 296.163,159.156 294.829,157.156 293,155.5C 292.536,156.094 292.369,156.761 292.5,157.5C 290.754,155.748 288.754,154.415 286.5,153.5C 286.062,153.565 285.728,153.399 285.5,153C 289.551,151.027 291.551,147.86 291.5,143.5 Z"/></g>
<g><path style="opacity:0.89" fill="#5d656e" d="M 248.5,240.5 C 248.5,239.833 248.5,239.167 248.5,238.5C 260.091,224.738 272.258,211.404 285,198.5C 287.911,195.01 290.578,191.344 293,187.5C 299.126,177.297 298.959,167.297 292.5,157.5C 292.369,156.761 292.536,156.094 293,155.5C 294.829,157.156 296.163,159.156 297,161.5C 299.938,171.77 298.605,181.437 293,190.5C 278.301,207.361 263.468,224.028 248.5,240.5 Z"/></g>
<g><path style="opacity:0.986" fill="#86aaca" d="M 298.5,188.5 C 298.938,189.506 299.604,189.506 300.5,188.5C 297.996,193.515 294.996,198.181 291.5,202.5C 289.148,200.374 289.481,198.374 292.5,196.5C 293.167,196.5 293.5,196.167 293.5,195.5C 295.412,193.343 297.079,191.009 298.5,188.5 Z"/></g>
<g><path style="opacity:0.447" fill="#c7debc" d="M 150.5,191.5 C 150.59,194.152 149.924,196.485 148.5,198.5C 148.41,195.848 149.076,193.515 150.5,191.5 Z"/></g>
<g><path style="opacity:0.547" fill="#bfdbb3" d="M 152.5,220.5 C 151.191,218.429 150.525,215.929 150.5,213C 150.833,210.5 151.167,208 151.5,205.5C 152.494,210.456 152.827,215.456 152.5,220.5 Z"/></g>
<g><path style="opacity:0.993" fill="#5d90ba" d="M 322.5,210.5 C 360.773,220.613 383.273,245.279 390,284.5C 391.417,297.111 390.25,309.444 386.5,321.5C 384.647,322.76 382.814,322.76 381,321.5C 389.822,282.953 378.655,251.787 347.5,228C 339.333,222.916 330.666,218.916 321.5,216C 320.243,213.924 320.576,212.09 322.5,210.5 Z"/></g>
<g><path style="opacity:0.227" fill="#cfe4c7" d="M 152.5,224.5 C 153.451,225.919 153.784,227.585 153.5,229.5C 153.167,229.5 152.833,229.5 152.5,229.5C 151.766,228.292 151.433,226.959 151.5,225.5C 152.167,225.5 152.5,225.167 152.5,224.5 Z"/></g>
<g><path style="opacity:0.992" fill="#5e90ba" d="M 313.5,241.5 C 339.034,246.871 353.867,262.537 358,288.5C 359.064,296.9 358.23,305.067 355.5,313C 353.559,313.743 351.726,313.576 350,312.5C 355.23,289.214 348.73,270.047 330.5,255C 325.579,251.767 320.246,249.434 314.5,248C 312.316,246.102 311.983,243.936 313.5,241.5 Z"/></g>
<g><path style="opacity:0.008" fill="#dfead7" d="M 148.5,240.5 C 149.612,242.599 150.279,244.933 150.5,247.5C 148.837,245.562 148.171,243.228 148.5,240.5 Z"/></g>
<g><path style="opacity:0.998" fill="#699f87" d="M 248.5,238.5 C 248.5,239.167 248.5,239.833 248.5,240.5C 248.062,240.435 247.728,240.601 247.5,241C 248.926,243.045 249.926,245.212 250.5,247.5C 241.911,260.082 230.578,269.415 216.5,275.5C 221.087,266.653 226.42,258.32 232.5,250.5C 235.997,246.834 239.331,243.001 242.5,239C 244.602,239.256 246.602,239.089 248.5,238.5 Z"/></g>
<g><path style="opacity:0.11" fill="#d7e5e0" d="M 243.5,248.5 C 244.774,249.189 244.774,250.023 243.5,251C 238.5,255.333 233.5,259.667 228.5,264C 227.833,264.667 227.167,264.667 226.5,264C 232.362,258.967 238.029,253.801 243.5,248.5 Z"/></g>
<g><path style="opacity:0.999" fill="#6fa681" d="M 232.5,250.5 C 226.42,258.32 221.087,266.653 216.5,275.5C 210.463,279.403 203.796,281.736 196.5,282.5C 195.833,282.5 195.167,282.5 194.5,282.5C 196.584,278.664 198.917,274.997 201.5,271.5C 202.167,271.5 202.5,271.167 202.5,270.5C 206.741,268.379 211.075,266.213 215.5,264C 221.348,259.643 227.015,255.143 232.5,250.5 Z"/></g>
<g><path style="opacity:0.004" fill="#e5edde" d="M 171.5,263.5 C 173.027,263.427 174.027,264.094 174.5,265.5C 172.973,265.573 171.973,264.906 171.5,263.5 Z"/></g>
<g><path style="opacity:0.996" fill="#4482b1" d="M 308.5,320.5 C 302.797,320.625 297.13,320.292 291.5,319.5C 288.669,318.921 286.336,317.588 284.5,315.5C 280.733,312.068 277.733,308.068 275.5,303.5C 271.531,287.938 276.864,276.771 291.5,270C 311.453,266.311 323.119,274.477 326.5,294.5C 325.741,303.181 322.408,310.681 316.5,317C 314.182,318.993 311.516,320.159 308.5,320.5 Z M 286.5,276.5 C 288.465,276.948 288.798,277.948 287.5,279.5C 285.481,278.867 285.147,277.867 286.5,276.5 Z M 281.5,280.5 C 283.346,280.222 284.68,280.889 285.5,282.5C 284.687,286.531 282.354,288.864 278.5,289.5C 279.213,286.406 280.213,283.406 281.5,280.5 Z M 312.5,311.5 C 314.934,312.354 314.767,313.354 312,314.5C 311.53,313.423 311.697,312.423 312.5,311.5 Z M 304.5,314.5 C 308.327,314.44 308.994,315.607 306.5,318C 303.036,318.817 299.702,318.483 296.5,317C 299.166,315.939 301.833,315.106 304.5,314.5 Z"/></g>
<g><path style="opacity:0.478" fill="#bcd5ba" d="M 184.5,270.5 C 190.506,271.74 196.506,271.74 202.5,270.5C 202.5,271.167 202.167,271.5 201.5,271.5C 195.596,273.072 189.929,272.738 184.5,270.5 Z"/></g>
<g><path style="opacity:0.998" fill="#65a465" d="M 184.5,270.5 C 189.929,272.738 195.596,273.072 201.5,271.5C 198.917,274.997 196.584,278.664 194.5,282.5C 189.047,282.635 183.714,281.968 178.5,280.5C 178.082,279.778 177.416,279.278 176.5,279C 177.766,278.691 178.933,278.191 180,277.5C 181.524,275.102 183.024,272.769 184.5,270.5 Z"/></g>
<g><path style="opacity:0.998" fill="#83b778" d="M 180.5,268.5 C 182.153,268.66 183.486,269.326 184.5,270.5C 183.024,272.769 181.524,275.102 180,277.5C 178.933,278.191 177.766,278.691 176.5,279C 177.416,279.278 178.082,279.778 178.5,280.5C 177.504,280.414 176.671,280.748 176,281.5C 170.293,293.024 166.46,305.024 164.5,317.5C 164.657,316.127 164.49,314.793 164,313.5C 162.391,316.407 160.558,319.073 158.5,321.5C 158.5,318.833 158.5,316.167 158.5,313.5C 159.468,311.393 159.802,309.059 159.5,306.5C 160.451,305.081 160.784,303.415 160.5,301.5C 161.434,300.432 161.768,299.099 161.5,297.5C 162.434,296.432 162.768,295.099 162.5,293.5C 162.833,293.5 163.167,293.5 163.5,293.5C 163.351,294.552 163.517,295.552 164,296.5C 169.449,287.39 175.283,278.556 181.5,270C 180.944,269.617 180.611,269.117 180.5,268.5 Z"/></g>
<g><path style="opacity:0.09" fill="#e5ede2" d="M 178.5,280.5 C 183.714,281.968 189.047,282.635 194.5,282.5C 195.167,282.5 195.833,282.5 196.5,282.5C 190.272,284.147 184.272,283.48 178.5,280.5 Z"/></g>
<g><path style="opacity:0.067" fill="#e1eedc" d="M 164.5,285.5 C 164.5,286.167 164.833,286.5 165.5,286.5C 165.672,287.492 165.338,288.158 164.5,288.5C 164.5,287.833 164.167,287.5 163.5,287.5C 163.328,286.508 163.662,285.842 164.5,285.5 Z"/></g>
<g><path style="opacity:0.997" fill="#8fbf7f" d="M 162.5,290.5 C 162.5,291.5 162.5,292.5 162.5,293.5C 161.566,294.568 161.232,295.901 161.5,297.5C 160.566,298.568 160.232,299.901 160.5,301.5C 159.549,302.919 159.216,304.585 159.5,306.5C 159.167,306.5 158.833,306.5 158.5,306.5C 156.215,307.957 154.382,309.957 153,312.5C 151.725,320.447 151.225,328.447 151.5,336.5C 149.575,320.705 151.575,305.372 157.5,290.5C 157.343,291.873 157.51,293.207 158,294.5C 159.333,292.5 160.667,290.5 162,288.5C 162.464,289.094 162.631,289.761 162.5,290.5 Z"/></g>
<g><path style="opacity:0.993" fill="#5686ab" d="M 275.5,303.5 C 277.733,308.068 280.733,312.068 284.5,315.5C 281.236,316.927 278.736,319.261 277,322.5C 270.809,332.881 265.143,343.548 260,354.5C 249.124,370.845 234.291,381.678 215.5,387C 210.167,387.667 204.833,387.667 199.5,387C 197.942,386.79 196.609,386.29 195.5,385.5C 196.496,385.586 197.329,385.252 198,384.5C 199.709,381.582 201.542,378.748 203.5,376C 206.365,375.817 209.031,375.317 211.5,374.5C 229.455,369.432 243.622,359.098 254,343.5C 258.695,329.768 265.695,317.435 275,306.5C 275.483,305.552 275.649,304.552 275.5,303.5 Z"/></g>
<g><path style="opacity:0.886" fill="#99b7d2" d="M 291.5,319.5 C 297.13,320.292 302.797,320.625 308.5,320.5C 302.723,323.108 297.057,322.775 291.5,319.5 Z"/></g>
<g><path style="opacity:0.998" fill="#6aa769" d="M 158.5,306.5 C 158.5,308.833 158.5,311.167 158.5,313.5C 157.662,313.842 157.328,314.508 157.5,315.5C 156.355,319.311 156.188,323.311 157,327.5C 157.333,327.833 157.667,328.167 158,328.5C 158.49,327.207 158.657,325.873 158.5,324.5C 158.5,323.5 158.5,322.5 158.5,321.5C 160.558,319.073 162.391,316.407 164,313.5C 164.49,314.793 164.657,316.127 164.5,317.5C 163.675,321.647 163.175,325.981 163,330.5C 161.303,333.02 159.47,335.353 157.5,337.5C 156.928,339.255 156.094,340.922 155,342.5C 154.23,343.598 153.397,343.598 152.5,342.5C 151.85,340.565 151.517,338.565 151.5,336.5C 151.225,328.447 151.725,320.447 153,312.5C 154.382,309.957 156.215,307.957 158.5,306.5 Z"/></g>
<g><path style="opacity:0.506" fill="#b2d2b0" d="M 157.5,315.5 C 157.19,318.713 157.523,321.713 158.5,324.5C 158.657,325.873 158.49,327.207 158,328.5C 157.667,328.167 157.333,327.833 157,327.5C 156.188,323.311 156.355,319.311 157.5,315.5 Z"/></g>
<g><path style="opacity:0.999" fill="#6da679" d="M 164.5,317.5 C 164.407,323.863 164.74,330.196 165.5,336.5C 164.174,342.148 161.508,347.148 157.5,351.5C 156.817,351.137 156.15,350.804 155.5,350.5C 154.129,348.064 153.129,345.397 152.5,342.5C 153.397,343.598 154.23,343.598 155,342.5C 156.094,340.922 156.928,339.255 157.5,337.5C 159.47,335.353 161.303,333.02 163,330.5C 163.175,325.981 163.675,321.647 164.5,317.5 Z"/></g>
<g><path style="opacity:0.463" fill="#bbd7bd" d="M 157.5,337.5 C 156.414,337.38 155.747,336.713 155.5,335.5C 155.833,334.833 156.167,334.167 156.5,333.5C 157.429,334.689 157.762,336.022 157.5,337.5 Z"/></g>
<g><path style="opacity:0.998" fill="#68a082" d="M 165.5,336.5 C 167.278,341.825 169.278,347.158 171.5,352.5C 170.379,356.474 168.546,360.14 166,363.5C 165.329,364.252 164.496,364.586 163.5,364.5C 159.826,360.493 157.159,355.827 155.5,350.5C 156.15,350.804 156.817,351.137 157.5,351.5C 161.508,347.148 164.174,342.148 165.5,336.5 Z"/></g>
<g><path style="opacity:0.999" fill="#60978e" d="M 171.5,352.5 C 175.48,358.113 180.146,363.113 185.5,367.5C 183.983,367.511 182.816,368.177 182,369.5C 180.623,371.754 179.123,373.92 177.5,376C 178.056,376.383 178.389,376.883 178.5,377.5C 172.609,374.281 167.609,369.948 163.5,364.5C 164.496,364.586 165.329,364.252 166,363.5C 168.546,360.14 170.379,356.474 171.5,352.5 Z"/></g>
<g><path style="opacity:0.216" fill="#c8d9e4" d="M 248.5,360.5 C 249.525,360.897 249.692,361.563 249,362.5C 245.833,365.667 242.667,368.833 239.5,372C 236.299,374.267 232.966,375.934 229.5,377C 236.913,372.755 243.246,367.255 248.5,360.5 Z"/></g>
<g><path style="opacity:0.997" fill="#5d919a" d="M 185.5,367.5 C 189.191,369.541 192.858,371.541 196.5,373.5C 194.801,373.34 193.134,373.506 191.5,374C 189.833,376.333 188.167,378.667 186.5,381C 187.056,381.383 187.389,381.883 187.5,382.5C 184.008,381.59 181.008,379.924 178.5,377.5C 178.389,376.883 178.056,376.383 177.5,376C 179.123,373.92 180.623,371.754 182,369.5C 182.816,368.177 183.983,367.511 185.5,367.5 Z"/></g>
<g><path style="opacity:0.998" fill="#5a8ca2" d="M 196.5,373.5 C 201.453,374.329 206.453,374.663 211.5,374.5C 209.031,375.317 206.365,375.817 203.5,376C 201.542,378.748 199.709,381.582 198,384.5C 197.329,385.252 196.496,385.586 195.5,385.5C 192.458,385.267 189.792,384.267 187.5,382.5C 187.389,381.883 187.056,381.383 186.5,381C 188.167,378.667 189.833,376.333 191.5,374C 193.134,373.506 194.801,373.34 196.5,373.5 Z"/></g>
<g><path style="opacity:0.282" fill="#bdd1df" d="M 222.5,379.5 C 223.552,379.351 224.552,379.517 225.5,380C 223.598,381.301 221.598,381.968 219.5,382C 220.571,381.148 221.571,380.315 222.5,379.5 Z"/></g>
</svg>
